<svg id="Capa_1" data-name="Capa 1" xmlns="http://www.w3.org/2000/svg" xmlns:xlink="http://www.w3.org/1999/xlink" viewBox="0 0 216 207"><defs><style>.cls-1{fill:url(#Degradado_sin_nombre_9);}</style><linearGradient id="Degradado_sin_nombre_9" x1="-196.09" y1="498.09" x2="-195.05" y2="498.09" gradientTransform="matrix(216, 0, 0, -207, 42355, 103208)" gradientUnits="userSpaceOnUse"><stop offset="0.01" stop-color="#a13b36"/><stop offset="1" stop-color="#c86243"/></linearGradient></defs><g id="Page-1"><g id="Desktop-HD"><g id="Group-6"><g id="Group-3"><g id="icons8-line_chart" data-name="icons8-line chart"><path id="Shape" class="cls-1" d="M198,0a18.14,18.14,0,0,0-15.19,27.84L165.66,54.28A18.4,18.4,0,0,0,162,54a18.09,18.09,0,0,0-10.41,3.38L134.72,47.25A16.67,16.67,0,0,0,135,45a18,18,0,1,0-35.44,4.78L80.44,65.25A17.78,17.78,0,0,0,54,81a10.46,10.46,0,0,0,0,1.12L29.53,94.22A18,18,0,1,0,36,108v-.84L60.47,94.78a18.12,18.12,0,0,0,29-18.56l19.12-15.47a17.38,17.38,0,0,0,18.85-1.13l16.87,10.13A16.67,16.67,0,0,0,144,72a18,18,0,1,0,33.19-9.84l17.43-26.44A18,18,0,1,0,198,0Zm0,117a17.84,17.84,0,0,0-15.47,27l-17.44,27.28A18.69,18.69,0,0,0,162,171a18,18,0,0,0-6.75,1.12l-21.37-21.37a18,18,0,1,0-34.32-2L80.44,164.25a17.8,17.8,0,0,0-23.63,5.91l-21.37-3.38a17.76,17.76,0,1,0-2.25,14.06l21.37,3.38a18,18,0,0,0,34.88-9l19.12-15.47a18.47,18.47,0,0,0,15.19,1.13l21.37,21.37A18.08,18.08,0,1,0,180,189a18.21,18.21,0,0,0-3.09-10.12l17.15-26.16A18.35,18.35,0,0,0,198,153a18,18,0,0,0,0-36Z"/></g></g></g></g></g></svg>